<svg xmlns="http://www.w3.org/2000/svg" viewBox="0 0 809.34 956.15"><defs><style>.cls-2,.cls-4{fill:none;stroke-linecap:round;stroke-linejoin:round;stroke-width:4.78px}.cls-2{stroke:#b6c6fc}.cls-3{fill:#fb5d64}.cls-4{stroke:#1b3c87}.cls-7{fill:#fff}</style></defs><g id="Layer_2" data-name="Layer 2"><g id="vector"><path d="M565.33 291c85.12 68.63 190.48 115.4 227.94 194.07 37.27 78.67 6.45 188.87-58.78 258.4-65.23 69.35-164.68 98-257 120.06-92.29 22.23-177.22 37.82-234 4.84-56.81-33.15-85.48-115-127.77-188.87-42.29-73.64-98.38-139.41-111.1-219.86C-8.1 379 22.54 283.31 87.41 211.27c65.05-72.22 164.5-121 246.57-100.17 81.9 20.78 146.41 111.28 231.35 179.9Z" style="fill:#f0f0f0"/><path class="cls-2" d="m726.53 277.44 59.86 137.29-244.09 41.55 184.23-178.84z"/><path class="cls-3" d="M513.19 461c0-102.85-2-206.33-138.11-206.33-124.25 0-134.8 142.9-135.43 194.21-.63 52.07-17 82.28-37.37 105.58v246.8c67.33 60.91 158.13 120 201.94 120 39.83 0 113.73-27.93 173.83-62.3V612.61c-34.31-40.39-64.86-86.38-64.86-151.61Z"/><path class="cls-4" d="M112.7 675.33c5.22-111.17 118.26-94.68 120-233.42.28-22.4 2.44-62.25 15.13-100.05M654.26 787.47c-41.76 55.07-193.17 126.85-257 126.85-50.88 0-165.13-79.74-232.41-149.41M561.79 594.43c39.73 49.39 88.21 89.11 100.42 142.07M286.78 277.43c19.38-18 45.66-29.73 81.3-29.73 136.13 0 138.11 103.48 138.11 206.33 0 44 13.94 79.32 33.56 110"/><path d="M202.28 871.64a59 59 0 0 0 58.84 58.85h258.09a59 59 0 0 0 58.84-58.85V747.5c-44-82.24-114.87-135.62-194.81-135.62-72 0-136.68 43.34-181 112.07Z" style="fill:#46dbc9"/><path d="M0 789.46a64.41 64.41 0 1 1 64.41 64.41A64.42 64.42 0 0 1 0 789.46Z" style="fill:#eaefff;fill-rule:evenodd"/><path class="cls-2" transform="rotate(-49.93 166.071 124.124)" d="M74.63 43.69h182.84v160.86H74.63z"/><path class="cls-4" d="M563.29 726.06q7.86 13 14.76 27.13M290.72 627.81c26.86-14.16 56-21.93 86.52-21.93 55.36 0 106.36 25.59 147.11 68.63M202.28 708.94A278.32 278.32 0 0 1 250 655.66"/><path class="cls-4" d="M599 890a64 64 0 0 1-63.79 63.79h-290A64 64 0 0 1 181.36 890V410.69M181.36 295V160.31a64 64 0 0 1 63.79-63.79h290A64 64 0 0 1 599 160.31v585.07"/><path class="cls-4" d="M222.48 915.93a58.77 58.77 0 0 1-20.2-44.29v-693a59 59 0 0 1 58.84-58.85h185.64M537.29 122.65a59.08 59.08 0 0 1 40.76 56v693a59 59 0 0 1-58.84 58.85H342.6"/><path class="cls-4" d="M498.07 119.79a22.45 22.45 0 0 1 1.39 7.79v1.23a22.73 22.73 0 0 1-22.66 22.66H319.86M301.19 905.24h177.94"/><path class="cls-7" d="M310.3 529.43c4 23 6.26 87.12 2.89 120.52 12.82 10.8 69.15 20.58 106.6 6.07-5.06-18.55-7.76-62.74-3.37-89.73-23.96-8.77-106.12-36.86-106.12-36.86Z"/><path class="cls-4" d="M309.81 598.15c.11 17.4-.36 34.26-1.62 46.8 7.71 6.5 31.21 12.63 56.85 13.32M414.79 651c-5.06-18.55-7.76-62.74-3.37-89.73-24-8.77-106.12-36.86-106.12-36.86 1.54 8.89 2.83 23.91 3.63 40.93"/><ellipse class="cls-7" cx="390.8" cy="432.43" rx="112.5" ry="150"/><path class="cls-4" d="M478.12 507.22c-20.07 41.07-54.82 68.21-94.32 68.21a86 86 0 0 1-26.4-4.15M280.45 484.79a193.1 193.1 0 0 1-9.15-59.36c0-82.84 50.36-150 112.5-150s112.5 67.16 112.5 150a195.82 195.82 0 0 1-5.72 47.34"/><ellipse cx="450.43" cy="433.32" rx="6.37" ry="14.29" style="fill:#1b3c87"/><path class="cls-4" d="M415 456.28c2.65 10.68 7.55 22.52 16 30M412.32 436.59a63.75 63.75 0 0 0 .38 6.54"/><circle class="cls-4" cx="370.42" cy="511.99" r="11.43"/><path class="cls-3" d="M415.32 314.25a8 8 0 0 0 .41 1.55c5.56 16.5 63.43 121 90.24 139.68.95-16.34 2.54-83.54-7.92-102.56s-53.89-69.1-67.52-69.1-15.17 30.79-15.17 30.79"/><path class="cls-4" d="M475.36 422.1a205.75 205.75 0 0 0 16.05 19.72M409.32 308.25a8 8 0 0 0 .41 1.55c3.51 10.4 27.81 55.78 52 92.58"/><path class="cls-3" d="M441.84 282.44c0 10-91.24 182.94-137.78 207.12-19.16 12.77-56.06 17.33-56.06 7.3s17.79-182 55.66-201.65 93.47-42.43 138.18-12.77Z"/><path class="cls-4" d="M394.74 359.92c-30.14 51.82-69.81 111.2-95.68 124.64-8.43 5.62-20.32 9.65-31 11.55M436.84 277.44c0 2.6-6.12 16.11-16 35.14"/><circle class="cls-7" cx="290.99" cy="483.35" r="28.87"/><path class="cls-4" d="M274.31 451.94a28.91 28.91 0 0 1 27.82 2.47M294.17 506.05a28.9 28.9 0 0 1-36-35.34"/></g></g></svg>